<svg width="764" height="179" viewBox="0 0 764 179" fill="none" xmlns="http://www.w3.org/2000/svg">
<path d="M239.07 156.572V158.947H224.179V156.869L231.632 148.572C232.548 147.551 233.259 146.684 233.765 145.97C234.27 145.257 234.624 144.616 234.827 144.048C235.03 143.481 235.132 142.9 235.132 142.306C235.132 141.556 234.978 140.876 234.671 140.267C234.363 139.658 233.913 139.171 233.319 138.806C232.725 138.442 232.007 138.259 231.163 138.259C230.152 138.259 229.311 138.454 228.64 138.845C227.969 139.236 227.465 139.781 227.132 140.478C226.798 141.176 226.632 141.978 226.632 142.884H223.741C223.741 141.603 224.022 140.431 224.585 139.368C225.148 138.305 225.981 137.46 227.085 136.829C228.189 136.199 229.548 135.884 231.163 135.884C232.601 135.884 233.829 136.137 234.851 136.642C235.872 137.148 236.656 137.856 237.203 138.767C237.75 139.679 238.023 140.744 238.023 141.962C238.023 142.629 237.911 143.304 237.687 143.985C237.462 144.668 237.156 145.347 236.765 146.024C236.374 146.702 235.921 147.368 235.406 148.024C234.891 148.68 234.341 149.327 233.758 149.962L227.664 156.571H239.07V156.572Z" fill="white"/>
<path d="M246.366 148.525V146.791H248.835C250.282 146.791 251.481 146.963 252.429 147.307C253.376 147.651 254.124 148.11 254.671 148.682C255.218 149.255 255.603 149.883 255.827 150.565C256.051 151.248 256.163 151.927 256.163 152.604C256.163 153.666 255.983 154.61 255.624 155.432C255.265 156.255 254.759 156.953 254.108 157.526C253.457 158.099 252.694 158.532 251.819 158.823C250.944 159.115 249.991 159.261 248.96 159.261C247.97 159.261 247.04 159.12 246.171 158.839C245.301 158.558 244.532 158.15 243.866 157.612C243.199 157.076 242.678 156.415 242.304 155.628C241.929 154.842 241.742 153.943 241.742 152.933H244.633C244.633 153.725 244.807 154.417 245.156 155.011C245.505 155.605 246.005 156.066 246.656 156.394C247.306 156.722 248.075 156.886 248.961 156.886C249.847 156.886 250.609 156.733 251.25 156.425C251.891 156.118 252.385 155.652 252.734 155.027C253.083 154.402 253.257 153.616 253.257 152.668C253.257 151.72 253.059 150.941 252.663 150.332C252.267 149.723 251.707 149.27 250.983 148.973C250.258 148.676 249.407 148.528 248.428 148.528H246.366V148.525ZM246.366 146.15H248.428C249.438 146.15 250.274 145.981 250.936 145.642C251.597 145.304 252.092 144.84 252.42 144.251C252.748 143.663 252.912 142.999 252.912 142.259C252.912 141.384 252.766 140.65 252.474 140.056C252.182 139.462 251.745 139.015 251.162 138.712C250.578 138.41 249.839 138.259 248.943 138.259C248.131 138.259 247.414 138.418 246.795 138.736C246.175 139.054 245.691 139.505 245.342 140.088C244.992 140.672 244.819 141.359 244.819 142.15H241.928C241.928 140.994 242.219 139.942 242.803 138.994C243.386 138.047 244.206 137.291 245.264 136.728C246.321 136.166 247.547 135.884 248.944 135.884C250.319 135.884 251.522 136.126 252.553 136.611C253.584 137.096 254.386 137.814 254.959 138.767C255.531 139.72 255.818 140.906 255.818 142.322C255.818 142.895 255.685 143.508 255.42 144.158C255.154 144.809 254.742 145.416 254.186 145.978C253.628 146.54 252.907 147.001 252.022 147.361C251.136 147.72 250.074 147.9 248.834 147.9H246.365L246.366 146.15Z" fill="white"/>
<path d="M260.491 157.416C260.491 156.927 260.644 156.513 260.952 156.174C261.259 155.836 261.704 155.666 262.288 155.666C262.872 155.666 263.316 155.836 263.624 156.174C263.931 156.513 264.085 156.927 264.085 157.416C264.085 157.895 263.931 158.302 263.624 158.635C263.316 158.968 262.871 159.135 262.288 159.135C261.705 159.135 261.259 158.968 260.952 158.635C260.644 158.302 260.491 157.896 260.491 157.416Z" fill="white"/>
<path d="M283.476 156.572V158.947H268.585V156.869L276.038 148.572C276.954 147.551 277.665 146.684 278.171 145.97C278.676 145.257 279.03 144.616 279.233 144.048C279.436 143.481 279.538 142.9 279.538 142.306C279.538 141.556 279.384 140.876 279.077 140.267C278.769 139.658 278.319 139.171 277.725 138.806C277.131 138.442 276.413 138.259 275.569 138.259C274.558 138.259 273.717 138.454 273.046 138.845C272.375 139.236 271.871 139.781 271.538 140.478C271.204 141.176 271.038 141.978 271.038 142.884H268.147C268.147 141.603 268.428 140.431 268.991 139.368C269.554 138.305 270.387 137.46 271.491 136.829C272.595 136.199 273.954 135.884 275.569 135.884C277.007 135.884 278.235 136.137 279.257 136.642C280.278 137.148 281.062 137.856 281.609 138.767C282.156 139.679 282.429 140.744 282.429 141.962C282.429 142.629 282.317 143.304 282.093 143.985C281.868 144.668 281.562 145.347 281.171 146.024C280.78 146.702 280.327 147.368 279.812 148.024C279.297 148.68 278.747 149.327 278.164 149.962L272.07 156.571H283.476V156.572Z" fill="white"/>
<path d="M301.929 151.291V153.666H285.491V151.963L295.679 136.197H298.038L295.507 140.759L288.773 151.29L301.929 151.291ZM298.757 136.197V158.947H295.866V136.197H298.757Z" fill="white"/>
<path d="M304.898 157.416C304.898 156.927 305.051 156.513 305.359 156.174C305.666 155.836 306.111 155.666 306.695 155.666C307.279 155.666 307.723 155.836 308.031 156.174C308.338 156.513 308.492 156.927 308.492 157.416C308.492 157.895 308.338 158.302 308.031 158.635C307.723 158.968 307.278 159.135 306.695 159.135C306.112 159.135 305.666 158.968 305.359 158.635C305.051 158.302 304.898 157.896 304.898 157.416Z" fill="white"/>
<path d="M327.882 156.572V158.947H312.991V156.869L320.444 148.572C321.36 147.551 322.071 146.684 322.577 145.97C323.082 145.257 323.436 144.616 323.639 144.048C323.842 143.481 323.944 142.9 323.944 142.306C323.944 141.556 323.79 140.876 323.483 140.267C323.175 139.658 322.725 139.171 322.131 138.806C321.537 138.442 320.819 138.259 319.975 138.259C318.964 138.259 318.123 138.454 317.452 138.845C316.781 139.236 316.277 139.781 315.944 140.478C315.61 141.176 315.444 141.978 315.444 142.884H312.553C312.553 141.603 312.834 140.431 313.397 139.368C313.96 138.305 314.793 137.46 315.897 136.829C317.001 136.199 318.36 135.884 319.975 135.884C321.413 135.884 322.641 136.137 323.663 136.642C324.684 137.148 325.468 137.856 326.015 138.767C326.562 139.679 326.835 140.744 326.835 141.962C326.835 142.629 326.723 143.304 326.499 143.985C326.274 144.668 325.968 145.347 325.577 146.024C325.186 146.702 324.733 147.368 324.218 148.024C323.703 148.68 323.153 149.327 322.57 149.962L316.476 156.571H327.882V156.572Z" fill="white"/>
<path d="M334.616 148.119L332.304 147.525L333.445 136.197H345.117V138.869H335.898L335.21 145.057C335.626 144.818 336.155 144.594 336.796 144.385C337.437 144.177 338.173 144.073 339.007 144.073C340.059 144.073 341.001 144.253 341.835 144.612C342.668 144.971 343.379 145.485 343.968 146.151C344.556 146.818 345.007 147.62 345.32 148.557C345.633 149.494 345.789 150.541 345.789 151.698C345.789 152.792 345.641 153.798 345.344 154.714C345.047 155.631 344.602 156.431 344.008 157.112C343.414 157.795 342.666 158.323 341.766 158.698C340.865 159.073 339.805 159.26 338.586 159.26C337.669 159.26 336.802 159.132 335.984 158.877C335.166 158.622 334.437 158.231 333.796 157.705C333.155 157.18 332.634 156.523 332.234 155.736C331.833 154.95 331.58 154.025 331.476 152.963H334.226C334.351 153.817 334.601 154.536 334.976 155.119C335.351 155.703 335.843 156.142 336.453 156.439C337.063 156.736 337.773 156.884 338.586 156.884C339.274 156.884 339.883 156.765 340.414 156.525C340.945 156.286 341.393 155.942 341.758 155.494C342.122 155.047 342.401 154.505 342.594 153.869C342.786 153.234 342.883 152.52 342.883 151.728C342.883 151.009 342.783 150.343 342.586 149.728C342.388 149.114 342.094 148.578 341.703 148.119C341.312 147.661 340.836 147.305 340.273 147.049C339.711 146.794 339.064 146.666 338.335 146.666C337.366 146.666 336.634 146.797 336.14 147.057C335.645 147.318 335.137 147.672 334.617 148.119H334.616Z" fill="white"/>
<path d="M349.304 157.416C349.304 156.927 349.457 156.513 349.765 156.174C350.072 155.836 350.517 155.666 351.101 155.666C351.685 155.666 352.129 155.836 352.437 156.174C352.744 156.513 352.898 156.927 352.898 157.416C352.898 157.895 352.744 158.302 352.437 158.635C352.129 158.968 351.684 159.135 351.101 159.135C350.518 159.135 350.072 158.968 349.765 158.635C349.457 158.302 349.304 157.896 349.304 157.416Z" fill="white"/>
<path d="M365.71 142.041H368.616V160.963C368.616 161.994 368.452 162.869 368.124 163.588C367.796 164.307 367.306 164.851 366.655 165.221C366.004 165.591 365.183 165.776 364.194 165.776C363.933 165.776 363.629 165.75 363.28 165.698C362.931 165.646 362.637 165.584 362.397 165.51L362.413 163.182C362.611 163.224 362.835 163.257 363.085 163.284C363.335 163.311 363.554 163.323 363.741 163.323C364.168 163.323 364.527 163.245 364.819 163.089C365.11 162.933 365.332 162.683 365.483 162.339C365.633 161.995 365.71 161.537 365.71 160.964V142.042V142.041ZM365.413 137.557C365.413 137.088 365.559 136.693 365.851 136.369C366.142 136.047 366.564 135.885 367.117 135.885C367.679 135.885 368.106 136.047 368.398 136.369C368.689 136.692 368.836 137.088 368.836 137.557C368.836 138.005 368.69 138.388 368.398 138.705C368.106 139.023 367.679 139.182 367.117 139.182C366.564 139.182 366.142 139.024 365.851 138.705C365.559 138.388 365.413 138.005 365.413 137.557Z" fill="white"/>
<path d="M384.179 151.479L385.382 151.448C385.382 152.573 385.265 153.612 385.03 154.565C384.795 155.518 384.418 156.344 383.897 157.042C383.376 157.74 382.694 158.284 381.85 158.675C381.006 159.066 379.98 159.261 378.772 159.261C377.949 159.261 377.196 159.141 376.514 158.902C375.831 158.663 375.245 158.293 374.756 157.793C374.266 157.293 373.889 156.643 373.623 155.84C373.357 155.038 373.225 154.074 373.225 152.949V142.043H376.116V152.981C376.116 153.742 376.202 154.37 376.374 154.864C376.546 155.359 376.78 155.75 377.077 156.036C377.374 156.323 377.707 156.523 378.077 156.638C378.446 156.753 378.829 156.81 379.225 156.81C380.454 156.81 381.428 156.574 382.147 156.099C382.866 155.625 383.383 154.985 383.702 154.177C384.019 153.37 384.179 152.472 384.179 151.482V151.479ZM383.632 155.041V142.041H386.538V158.947H383.772L383.631 155.041H383.632Z" fill="white"/>
<path d="M394.07 134.947V158.947H391.164V134.947H394.07Z" fill="white"/>
<path d="M421.241 156.572V158.947H406.35V156.869L413.803 148.572C414.719 147.551 415.43 146.684 415.936 145.97C416.441 145.257 416.795 144.616 416.998 144.048C417.201 143.481 417.303 142.9 417.303 142.306C417.303 141.556 417.149 140.876 416.842 140.267C416.534 139.658 416.084 139.171 415.49 138.806C414.896 138.442 414.178 138.259 413.334 138.259C412.323 138.259 411.482 138.454 410.811 138.845C410.14 139.236 409.636 139.781 409.303 140.478C408.969 141.176 408.803 141.978 408.803 142.884H405.912C405.912 141.603 406.193 140.431 406.756 139.368C407.319 138.305 408.152 137.46 409.256 136.829C410.36 136.199 411.719 135.884 413.334 135.884C414.772 135.884 416 136.137 417.022 136.642C418.043 137.148 418.827 137.856 419.374 138.767C419.921 139.679 420.194 140.744 420.194 141.962C420.194 142.629 420.082 143.304 419.858 143.985C419.633 144.668 419.327 145.347 418.936 146.024C418.545 146.702 418.092 147.368 417.577 148.024C417.062 148.68 416.512 149.327 415.929 149.962L409.835 156.571H421.241V156.572Z" fill="white"/>
<path d="M438.601 145.76V149.229C438.601 151.094 438.434 152.667 438.101 153.948C437.767 155.229 437.289 156.26 436.663 157.042C436.037 157.824 435.285 158.389 434.405 158.737C433.524 159.086 432.532 159.26 431.428 159.26C430.553 159.26 429.745 159.151 429.006 158.932C428.266 158.713 427.602 158.362 427.014 157.877C426.425 157.393 425.922 156.76 425.506 155.979C425.089 155.198 424.772 154.25 424.553 153.135C424.334 152.021 424.225 150.719 424.225 149.229V145.76C424.225 143.896 424.394 142.333 424.733 141.072C425.071 139.812 425.553 138.799 426.178 138.033C426.803 137.267 427.555 136.719 428.436 136.385C429.316 136.052 430.303 135.885 431.397 135.885C432.282 135.885 433.097 135.992 433.842 136.205C434.586 136.419 435.25 136.758 435.834 137.221C436.417 137.685 436.914 138.299 437.326 139.065C437.737 139.831 438.053 140.766 438.271 141.87C438.49 142.974 438.599 144.271 438.599 145.761L438.601 145.76ZM435.695 149.697V145.275C435.695 144.254 435.634 143.356 435.515 142.58C435.395 141.805 435.22 141.141 434.992 140.588C434.763 140.036 434.473 139.588 434.125 139.244C433.775 138.9 433.375 138.648 432.922 138.486C432.469 138.325 431.961 138.244 431.399 138.244C430.711 138.244 430.102 138.372 429.571 138.627C429.04 138.883 428.594 139.286 428.235 139.838C427.876 140.391 427.602 141.114 427.415 142.01C427.227 142.906 427.134 143.994 427.134 145.276V149.698C427.134 150.719 427.194 151.62 427.314 152.401C427.433 153.182 427.613 153.857 427.853 154.424C428.092 154.992 428.384 155.458 428.728 155.822C429.072 156.187 429.47 156.455 429.923 156.627C430.376 156.799 430.878 156.885 431.431 156.885C432.139 156.885 432.759 156.75 433.29 156.479C433.821 156.208 434.267 155.784 434.626 155.206C434.985 154.628 435.253 153.884 435.431 152.972C435.608 152.061 435.697 150.97 435.697 149.699L435.695 149.697Z" fill="white"/>
<path d="M457.21 156.572V158.947H442.319V156.869L449.772 148.572C450.688 147.551 451.399 146.684 451.905 145.97C452.41 145.257 452.764 144.616 452.967 144.048C453.17 143.481 453.272 142.9 453.272 142.306C453.272 141.556 453.118 140.876 452.811 140.267C452.503 139.658 452.053 139.171 451.459 138.806C450.865 138.442 450.147 138.259 449.303 138.259C448.292 138.259 447.451 138.454 446.78 138.845C446.109 139.236 445.605 139.781 445.272 140.478C444.938 141.176 444.772 141.978 444.772 142.884H441.881C441.881 141.603 442.162 140.431 442.725 139.368C443.288 138.305 444.121 137.46 445.225 136.829C446.329 136.199 447.688 135.884 449.303 135.884C450.741 135.884 451.969 136.137 452.991 136.642C454.012 137.148 454.796 137.856 455.343 138.767C455.89 139.679 456.163 140.744 456.163 141.962C456.163 142.629 456.051 143.304 455.827 143.985C455.602 144.668 455.296 145.347 454.905 146.024C454.514 146.702 454.061 147.368 453.546 148.024C453.031 148.68 452.481 149.327 451.898 149.962L445.804 156.571H457.21V156.572Z" fill="white"/>
<path d="M471.382 136.166H471.632V138.619H471.382C469.851 138.619 468.57 138.867 467.538 139.361C466.507 139.856 465.688 140.517 465.085 141.345C464.481 142.173 464.046 143.103 463.78 144.134C463.514 145.165 463.382 146.212 463.382 147.275V150.619C463.382 151.63 463.501 152.523 463.741 153.299C463.98 154.075 464.308 154.729 464.725 155.26C465.141 155.791 465.613 156.193 466.139 156.463C466.664 156.734 467.214 156.869 467.787 156.869C468.453 156.869 469.047 156.742 469.568 156.486C470.089 156.231 470.529 155.872 470.888 155.408C471.247 154.945 471.521 154.395 471.708 153.76C471.896 153.125 471.989 152.427 471.989 151.666C471.989 150.989 471.905 150.336 471.739 149.705C471.572 149.075 471.317 148.513 470.973 148.017C470.629 147.523 470.2 147.132 469.684 146.845C469.168 146.559 468.556 146.415 467.848 146.415C467.045 146.415 466.298 146.61 465.606 147.001C464.913 147.392 464.345 147.902 463.903 148.532C463.46 149.163 463.208 149.847 463.145 150.587L461.614 150.571C461.76 149.405 462.033 148.407 462.434 147.579C462.834 146.751 463.334 146.074 463.934 145.548C464.533 145.023 465.205 144.637 465.95 144.392C466.694 144.148 467.483 144.025 468.317 144.025C469.452 144.025 470.431 144.239 471.255 144.666C472.077 145.094 472.755 145.664 473.286 146.377C473.817 147.091 474.21 147.893 474.466 148.783C474.721 149.674 474.849 150.588 474.849 151.525C474.849 152.598 474.698 153.603 474.396 154.541C474.093 155.479 473.643 156.302 473.044 157.01C472.444 157.719 471.708 158.271 470.833 158.666C469.958 159.061 468.942 159.26 467.786 159.26C466.557 159.26 465.483 159.007 464.567 158.502C463.65 157.997 462.889 157.322 462.286 156.479C461.682 155.635 461.228 154.698 460.927 153.667C460.624 152.636 460.474 151.589 460.474 150.526V149.167C460.474 147.563 460.635 145.99 460.958 144.448C461.28 142.907 461.841 141.51 462.638 140.26C463.435 139.01 464.541 138.016 465.958 137.276C467.374 136.537 469.182 136.167 471.38 136.167L471.382 136.166Z" fill="white"/>
<path d="M478.632 157.416C478.632 156.927 478.785 156.513 479.093 156.174C479.4 155.836 479.845 155.666 480.429 155.666C481.013 155.666 481.457 155.836 481.765 156.174C482.072 156.513 482.226 156.927 482.226 157.416C482.226 157.895 482.072 158.302 481.765 158.635C481.457 158.968 481.012 159.135 480.429 159.135C479.846 159.135 479.4 158.968 479.093 158.635C478.785 158.302 478.632 157.896 478.632 157.416Z" fill="white"/>
<path d="M533.103 79.5513V102.301H530.087V79.5513H533.103ZM546.837 79.5513L537.384 90.1603L532.072 95.6763L531.572 92.4573L535.572 88.0513L543.213 79.5513H546.837ZM543.931 102.301L535.509 91.2073L537.306 88.8163L547.525 102.3H543.931V102.301Z" fill="white"/>
<path d="M552.259 89.004V102.301H549.368V85.395H552.102L552.258 89.004H552.259ZM551.572 93.207L550.369 93.16C550.379 92.004 550.551 90.933 550.885 89.949C551.218 88.965 551.687 88.108 552.291 87.379C552.895 86.65 553.616 86.085 554.455 85.684C555.293 85.284 556.223 85.082 557.244 85.082C558.077 85.082 558.827 85.194 559.494 85.418C560.16 85.643 560.73 85.999 561.205 86.488C561.679 86.978 562.041 87.611 562.291 88.386C562.541 89.162 562.666 90.108 562.666 91.222V102.3H559.76V91.191C559.76 90.306 559.629 89.595 559.369 89.058C559.108 88.522 558.728 88.131 558.228 87.886C557.728 87.642 557.113 87.519 556.384 87.519C555.665 87.519 555.011 87.67 554.423 87.972C553.834 88.275 553.329 88.691 552.907 89.222C552.485 89.753 552.157 90.361 551.923 91.042C551.689 91.725 551.571 92.446 551.571 93.206L551.572 93.207Z" fill="white"/>
<path d="M574.056 102.613C572.878 102.613 571.814 102.413 570.861 102.011C569.908 101.611 569.09 101.045 568.408 100.316C567.725 99.587 567.202 98.722 566.838 97.722C566.473 96.722 566.291 95.628 566.291 94.441V93.785C566.291 92.41 566.494 91.183 566.9 90.105C567.306 89.027 567.858 88.113 568.556 87.363C569.253 86.613 570.045 86.046 570.931 85.66C571.816 85.275 572.733 85.082 573.681 85.082C574.889 85.082 575.933 85.291 576.814 85.707C577.694 86.124 578.416 86.705 578.978 87.449C579.54 88.194 579.957 89.069 580.228 90.074C580.499 91.08 580.634 92.176 580.634 93.363V94.66H568.009V92.301H577.743V92.082C577.701 91.332 577.548 90.603 577.282 89.894C577.016 89.186 576.596 88.603 576.024 88.144C575.451 87.686 574.67 87.456 573.68 87.456C573.024 87.456 572.419 87.595 571.868 87.87C571.315 88.146 570.842 88.556 570.446 89.097C570.05 89.639 569.743 90.3 569.524 91.081C569.305 91.862 569.196 92.764 569.196 93.784V94.44C569.196 95.243 569.307 95.995 569.532 96.698C569.756 97.401 570.084 98.018 570.516 98.55C570.948 99.081 571.474 99.498 572.094 99.8C572.713 100.103 573.419 100.253 574.211 100.253C575.232 100.253 576.096 100.045 576.805 99.628C577.513 99.212 578.133 98.654 578.664 97.956L580.414 99.347C580.049 99.9 579.586 100.425 579.023 100.925C578.46 101.425 577.77 101.831 576.953 102.144C576.135 102.456 575.169 102.613 574.055 102.613H574.056Z" fill="white"/>
<path d="M596.15 87.4419L584.962 102.301H583.196V100.176L594.305 85.3949H596.149V87.4419H596.15ZM594.868 85.3949V87.7859H583.321V85.3949H594.868ZM596.603 99.9259V102.301H584.306V99.9259H596.603ZM587.478 78.3169L589.837 80.9729L592.196 78.3169H594.696V78.4729L590.727 82.7539H588.946L585.04 78.4729V78.3169H587.478Z" fill="white"/>
<path d="M606.65 102.613C605.472 102.613 604.408 102.413 603.455 102.011C602.502 101.611 601.684 101.045 601.002 100.316C600.319 99.587 599.796 98.722 599.432 97.722C599.067 96.722 598.885 95.628 598.885 94.441V93.785C598.885 92.41 599.088 91.183 599.494 90.105C599.9 89.027 600.452 88.113 601.15 87.363C601.847 86.613 602.639 86.046 603.525 85.66C604.41 85.275 605.327 85.082 606.275 85.082C607.483 85.082 608.527 85.291 609.408 85.707C610.288 86.124 611.01 86.705 611.572 87.449C612.134 88.194 612.551 89.069 612.822 90.074C613.093 91.08 613.228 92.176 613.228 93.363V94.66H600.603V92.301H610.337V92.082C610.295 91.332 610.142 90.603 609.876 89.894C609.61 89.186 609.19 88.603 608.618 88.144C608.045 87.686 607.264 87.456 606.274 87.456C605.618 87.456 605.013 87.595 604.462 87.87C603.909 88.146 603.436 88.556 603.04 89.097C602.644 89.639 602.337 90.3 602.118 91.081C601.899 91.862 601.79 92.764 601.79 93.784V94.44C601.79 95.243 601.901 95.995 602.126 96.698C602.35 97.401 602.678 98.018 603.11 98.55C603.542 99.081 604.068 99.498 604.688 99.8C605.307 100.103 606.013 100.253 606.805 100.253C607.826 100.253 608.69 100.045 609.399 99.628C610.107 99.212 610.727 98.654 611.258 97.956L613.008 99.347C612.643 99.9 612.18 100.425 611.617 100.925C611.054 101.425 610.364 101.831 609.547 102.144C608.729 102.456 607.763 102.613 606.649 102.613H606.65Z" fill="white"/>
<path d="M617.681 85.395L622.447 99.77L622.775 102.301H620.837L614.712 85.395H617.681ZM621.54 99.692L626.165 85.395H629.118L623.04 102.301H621.102L621.54 99.692Z" fill="white"/>
<path d="M650.306 92.051L650.337 94.082H647.415C646.592 94.082 645.857 94.147 645.212 94.277C644.566 94.408 644.024 94.603 643.587 94.863C643.149 95.124 642.816 95.449 642.587 95.84C642.358 96.231 642.243 96.687 642.243 97.207C642.243 97.738 642.362 98.223 642.602 98.66C642.841 99.098 643.204 99.444 643.688 99.699C644.172 99.955 644.768 100.082 645.477 100.082C646.362 100.082 647.143 99.894 647.821 99.52C648.498 99.145 649.037 98.687 649.438 98.145C649.838 97.604 650.055 97.078 650.086 96.567L651.32 97.958C651.247 98.396 651.049 98.88 650.726 99.411C650.403 99.942 649.973 100.45 649.437 100.934C648.9 101.418 648.265 101.82 647.531 102.137C646.797 102.454 645.97 102.614 645.054 102.614C643.908 102.614 642.906 102.39 642.046 101.942C641.187 101.495 640.52 100.893 640.046 100.137C639.571 99.382 639.335 98.535 639.335 97.598C639.335 96.692 639.512 95.893 639.866 95.2C640.22 94.508 640.73 93.929 641.397 93.466C642.063 93.003 642.866 92.652 643.803 92.411C644.741 92.172 645.787 92.052 646.944 92.052H650.303L650.306 92.051ZM649.806 99.41V90.707C649.806 90.041 649.673 89.46 649.408 88.965C649.142 88.471 648.744 88.088 648.213 87.817C647.682 87.546 647.025 87.411 646.244 87.411C645.515 87.411 644.877 87.536 644.33 87.786C643.783 88.036 643.355 88.364 643.049 88.77C642.741 89.176 642.588 89.614 642.588 90.082H639.697C639.697 89.478 639.853 88.879 640.166 88.285C640.479 87.691 640.929 87.152 641.518 86.668C642.106 86.184 642.815 85.799 643.643 85.512C644.471 85.226 645.395 85.082 646.416 85.082C647.645 85.082 648.73 85.291 649.674 85.707C650.616 86.124 651.356 86.752 651.893 87.59C652.429 88.429 652.698 89.479 652.698 90.738V98.613C652.698 99.175 652.747 99.775 652.846 100.41C652.945 101.046 653.093 101.593 653.291 102.051V102.301H650.275C650.129 101.968 650.014 101.523 649.931 100.965C649.847 100.408 649.806 99.89 649.806 99.41Z" fill="white"/>
<path d="M660.134 88.051V102.301H657.243V85.395H660.055L660.133 88.051H660.134ZM665.415 85.301L665.399 87.989C665.159 87.937 664.932 87.903 664.719 87.887C664.505 87.871 664.263 87.864 663.992 87.864C663.325 87.864 662.736 87.968 662.226 88.176C661.715 88.385 661.283 88.676 660.929 89.051C660.575 89.426 660.296 89.871 660.093 90.387C659.89 90.903 659.757 91.468 659.695 92.082L658.883 92.551C658.883 91.53 658.985 90.572 659.188 89.676C659.391 88.78 659.706 87.987 660.133 87.293C660.56 86.601 661.104 86.059 661.766 85.668C662.427 85.277 663.216 85.082 664.133 85.082C664.341 85.082 664.58 85.105 664.852 85.152C665.123 85.199 665.31 85.249 665.414 85.3L665.415 85.301Z" fill="white"/>
<path d="M677.931 97.817C677.931 97.401 677.839 97.012 677.658 96.653C677.475 96.294 677.105 95.965 676.549 95.669C675.991 95.372 675.155 95.114 674.041 94.896C673.103 94.699 672.257 94.464 671.502 94.193C670.746 93.922 670.106 93.594 669.58 93.209C669.054 92.824 668.65 92.371 668.369 91.85C668.088 91.329 667.947 90.72 667.947 90.022C667.947 89.356 668.095 88.725 668.392 88.131C668.689 87.537 669.111 87.012 669.658 86.553C670.205 86.095 670.863 85.736 671.635 85.475C672.406 85.215 673.265 85.084 674.213 85.084C675.567 85.084 676.723 85.324 677.682 85.803C678.64 86.282 679.374 86.92 679.885 87.717C680.395 88.514 680.651 89.397 680.651 90.365H677.76C677.76 89.896 677.621 89.441 677.346 88.998C677.07 88.556 676.668 88.188 676.143 87.896C675.617 87.605 674.973 87.458 674.213 87.458C673.41 87.458 672.762 87.581 672.268 87.825C671.773 88.07 671.414 88.38 671.19 88.755C670.965 89.13 670.854 89.526 670.854 89.943C670.854 90.255 670.909 90.535 671.018 90.779C671.127 91.024 671.323 91.248 671.604 91.451C671.885 91.654 672.281 91.845 672.792 92.021C673.302 92.199 673.953 92.375 674.745 92.552C676.13 92.864 677.27 93.24 678.167 93.677C679.063 94.115 679.729 94.652 680.167 95.286C680.605 95.922 680.823 96.692 680.823 97.598C680.823 98.338 680.669 99.015 680.362 99.629C680.054 100.244 679.612 100.773 679.034 101.215C678.456 101.658 677.768 102.002 676.972 102.246C676.175 102.491 675.282 102.613 674.292 102.613C672.802 102.613 671.542 102.347 670.511 101.816C669.48 101.285 668.699 100.597 668.167 99.754C667.635 98.911 667.37 98.02 667.37 97.082H670.276C670.317 97.874 670.547 98.502 670.964 98.965C671.38 99.429 671.891 99.757 672.495 99.949C673.099 100.142 673.698 100.238 674.292 100.238C675.083 100.238 675.747 100.134 676.284 99.926C676.82 99.718 677.229 99.432 677.511 99.067C677.792 98.703 677.933 98.286 677.933 97.817H677.931Z" fill="white"/>
<path d="M691.618 102.613C690.44 102.613 689.376 102.413 688.423 102.011C687.47 101.611 686.652 101.045 685.97 100.316C685.287 99.587 684.764 98.722 684.4 97.722C684.035 96.722 683.853 95.628 683.853 94.441V93.785C683.853 92.41 684.056 91.183 684.462 90.105C684.868 89.027 685.42 88.113 686.118 87.363C686.815 86.613 687.607 86.046 688.493 85.66C689.378 85.275 690.295 85.082 691.243 85.082C692.451 85.082 693.495 85.291 694.376 85.707C695.256 86.124 695.978 86.705 696.54 87.449C697.102 88.194 697.519 89.069 697.79 90.074C698.061 91.08 698.196 92.176 698.196 93.363V94.66H685.571V92.301H695.305V92.082C695.263 91.332 695.11 90.603 694.844 89.894C694.578 89.186 694.158 88.603 693.586 88.144C693.013 87.686 692.232 87.456 691.242 87.456C690.586 87.456 689.981 87.595 689.43 87.87C688.877 88.146 688.404 88.556 688.008 89.097C687.612 89.639 687.305 90.3 687.086 91.081C686.867 91.862 686.758 92.764 686.758 93.784V94.44C686.758 95.243 686.869 95.995 687.094 96.698C687.318 97.401 687.646 98.018 688.078 98.55C688.51 99.081 689.036 99.498 689.656 99.8C690.275 100.103 690.981 100.253 691.773 100.253C692.794 100.253 693.658 100.045 694.367 99.628C695.075 99.212 695.695 98.654 696.226 97.956L697.976 99.347C697.611 99.9 697.148 100.425 696.585 100.925C696.022 101.425 695.332 101.831 694.515 102.144C693.697 102.456 692.732 102.613 691.618 102.613Z" fill="white"/>
<path d="M704.462 89.004V102.301H701.571V85.395H704.305L704.461 89.004H704.462ZM703.775 93.207L702.572 93.16C702.582 92.004 702.754 90.933 703.088 89.949C703.421 88.965 703.89 88.108 704.494 87.379C705.098 86.65 705.819 86.085 706.658 85.684C707.496 85.284 708.426 85.082 709.447 85.082C710.28 85.082 711.03 85.194 711.697 85.418C712.363 85.643 712.933 85.999 713.408 86.488C713.882 86.978 714.244 87.611 714.494 88.386C714.744 89.162 714.869 90.108 714.869 91.222V102.3H711.963V91.191C711.963 90.306 711.832 89.595 711.572 89.058C711.311 88.522 710.931 88.131 710.431 87.886C709.931 87.642 709.316 87.519 708.587 87.519C707.868 87.519 707.214 87.67 706.626 87.972C706.037 88.275 705.532 88.691 705.11 89.222C704.688 89.753 704.36 90.361 704.126 91.042C703.892 91.725 703.774 92.446 703.774 93.206L703.775 93.207Z" fill="white"/>
<path d="M729.712 92.051L729.743 94.082H726.821C725.998 94.082 725.263 94.147 724.618 94.277C723.972 94.408 723.43 94.603 722.993 94.863C722.555 95.124 722.222 95.449 721.993 95.84C721.764 96.231 721.649 96.687 721.649 97.207C721.649 97.738 721.768 98.223 722.008 98.66C722.247 99.098 722.61 99.444 723.094 99.699C723.578 99.955 724.174 100.082 724.883 100.082C725.768 100.082 726.549 99.894 727.227 99.52C727.904 99.145 728.443 98.687 728.844 98.145C729.244 97.604 729.461 97.078 729.492 96.567L730.726 97.958C730.653 98.396 730.455 98.88 730.132 99.411C729.809 99.942 729.379 100.45 728.843 100.934C728.306 101.418 727.671 101.82 726.937 102.137C726.203 102.454 725.376 102.614 724.46 102.614C723.314 102.614 722.312 102.39 721.452 101.942C720.593 101.495 719.926 100.893 719.452 100.137C718.977 99.382 718.741 98.535 718.741 97.598C718.741 96.692 718.918 95.893 719.272 95.2C719.626 94.508 720.136 93.929 720.803 93.466C721.469 93.003 722.272 92.652 723.209 92.411C724.147 92.172 725.193 92.052 726.35 92.052H729.709L729.712 92.051ZM729.212 99.41V90.707C729.212 90.041 729.079 89.46 728.814 88.965C728.548 88.471 728.15 88.088 727.619 87.817C727.088 87.546 726.431 87.411 725.65 87.411C724.921 87.411 724.283 87.536 723.736 87.786C723.189 88.036 722.761 88.364 722.455 88.77C722.147 89.176 721.994 89.614 721.994 90.082H719.103C719.103 89.478 719.259 88.879 719.572 88.285C719.885 87.691 720.335 87.152 720.924 86.668C721.512 86.184 722.221 85.799 723.049 85.512C723.877 85.226 724.801 85.082 725.822 85.082C727.051 85.082 728.136 85.291 729.08 85.707C730.022 86.124 730.762 86.752 731.299 87.59C731.835 88.429 732.104 89.479 732.104 90.738V98.613C732.104 99.175 732.153 99.775 732.252 100.41C732.351 101.046 732.499 101.593 732.697 102.051V102.301H729.681C729.535 101.968 729.42 101.523 729.337 100.965C729.253 100.408 729.212 99.89 729.212 99.41Z" fill="white"/>
<path d="M739.79 78.3013V102.301H736.884V78.3013H739.79Z" fill="white"/>
<path d="M590.728 117.951V140.701H587.712V117.951H590.728ZM604.462 117.951L595.009 128.56L589.697 134.076L589.197 130.857L593.197 126.451L600.838 117.951H604.462ZM601.556 140.701L593.134 129.607L594.931 127.216L605.15 140.7L601.556 140.701Z" fill="white"/>
<path d="M610.243 126.451V140.701H607.352V123.795H610.164L610.243 126.451ZM615.525 123.701L615.509 126.389C615.269 126.337 615.042 126.303 614.829 126.287C614.615 126.271 614.373 126.264 614.102 126.264C613.435 126.264 612.846 126.368 612.336 126.576C611.825 126.784 611.393 127.076 611.039 127.451C610.685 127.826 610.406 128.271 610.203 128.787C610 129.303 609.867 129.868 609.805 130.482L608.993 130.951C608.993 129.93 609.095 128.972 609.298 128.076C609.501 127.18 609.816 126.386 610.243 125.693C610.67 125.001 611.214 124.459 611.876 124.068C612.537 123.677 613.326 123.482 614.243 123.482C614.451 123.482 614.69 123.505 614.962 123.552C615.233 123.599 615.42 123.649 615.524 123.7L615.525 123.701Z" fill="white"/>
<path d="M628.04 130.451L628.071 132.482H625.149C624.326 132.482 623.591 132.547 622.946 132.677C622.3 132.807 621.758 133.002 621.321 133.263C620.884 133.524 620.55 133.849 620.321 134.24C620.092 134.631 619.977 135.087 619.977 135.607C619.977 136.138 620.096 136.623 620.336 137.06C620.575 137.498 620.938 137.844 621.422 138.099C621.906 138.354 622.502 138.482 623.211 138.482C624.096 138.482 624.877 138.294 625.555 137.92C626.232 137.545 626.771 137.087 627.172 136.545C627.572 136.003 627.789 135.478 627.82 134.967L629.054 136.358C628.981 136.796 628.783 137.28 628.46 137.811C628.137 138.342 627.707 138.85 627.171 139.334C626.634 139.818 625.999 140.22 625.265 140.537C624.531 140.854 623.704 141.014 622.788 141.014C621.642 141.014 620.64 140.789 619.78 140.342C618.921 139.894 618.254 139.292 617.78 138.537C617.305 137.782 617.069 136.935 617.069 135.998C617.069 135.092 617.246 134.292 617.6 133.6C617.954 132.908 618.464 132.329 619.131 131.866C619.797 131.402 620.6 131.051 621.537 130.811C622.474 130.571 623.521 130.452 624.678 130.452H628.037L628.04 130.451ZM627.54 137.811V129.108C627.54 128.441 627.407 127.861 627.142 127.366C626.877 126.871 626.478 126.488 625.947 126.218C625.416 125.948 624.759 125.812 623.978 125.812C623.249 125.812 622.611 125.937 622.064 126.187C621.517 126.437 621.089 126.765 620.783 127.171C620.475 127.577 620.322 128.015 620.322 128.483H617.431C617.431 127.879 617.587 127.28 617.9 126.686C618.213 126.092 618.663 125.553 619.252 125.069C619.84 124.585 620.549 124.199 621.377 123.913C622.205 123.627 623.129 123.483 624.15 123.483C625.379 123.483 626.464 123.691 627.408 124.108C628.35 124.525 629.09 125.152 629.627 125.991C630.163 126.83 630.432 127.879 630.432 129.139V137.014C630.432 137.576 630.481 138.175 630.58 138.811C630.679 139.447 630.827 139.994 631.025 140.452V140.702H628.009C627.863 140.369 627.748 139.924 627.665 139.366C627.581 138.808 627.54 138.291 627.54 137.811Z" fill="white"/>
<path d="M634.29 132.436V132.108C634.29 130.816 634.443 129.642 634.751 128.585C635.058 127.527 635.501 126.619 636.079 125.858C636.657 125.097 637.357 124.511 638.181 124.1C639.003 123.689 639.931 123.483 640.962 123.483C642.024 123.483 642.954 123.668 643.751 124.038C644.548 124.408 645.225 124.944 645.782 125.647C646.339 126.35 646.779 127.197 647.102 128.186C647.424 129.175 647.649 130.295 647.774 131.545V132.983C647.659 134.222 647.438 135.337 647.11 136.327C646.782 137.317 646.339 138.16 645.782 138.858C645.224 139.556 644.545 140.089 643.743 140.46C642.94 140.829 642.003 141.015 640.931 141.015C639.92 141.015 639.006 140.801 638.189 140.374C637.371 139.947 636.67 139.348 636.087 138.577C635.503 137.806 635.058 136.897 634.751 135.85C634.443 134.803 634.29 133.665 634.29 132.436ZM645.931 123.795H648.556V140.342C648.556 141.831 648.253 143.102 647.65 144.154C647.046 145.206 646.205 146.006 645.127 146.552C644.049 147.098 642.807 147.372 641.4 147.372C640.816 147.372 640.131 147.28 639.345 147.099C638.558 146.916 637.787 146.609 637.033 146.177C636.277 145.744 635.644 145.163 635.135 144.435L636.651 142.716C637.359 143.57 638.101 144.163 638.878 144.497C639.653 144.83 640.422 144.997 641.183 144.997C642.099 144.997 642.891 144.825 643.558 144.481C644.224 144.137 644.743 143.629 645.113 142.958C645.482 142.286 645.668 141.46 645.668 140.481V127.512L645.934 123.793L645.931 123.795ZM637.181 132.108V132.436C637.181 133.28 637.267 134.072 637.439 134.811C637.611 135.55 637.877 136.202 638.236 136.764C638.595 137.326 639.056 137.767 639.619 138.084C640.182 138.401 640.853 138.561 641.635 138.561C642.593 138.561 643.385 138.358 644.01 137.952C644.635 137.546 645.132 137.01 645.502 136.343C645.871 135.676 646.16 134.952 646.369 134.171V130.405C646.254 129.832 646.08 129.277 645.846 128.741C645.612 128.205 645.309 127.725 644.94 127.303C644.57 126.881 644.114 126.545 643.573 126.295C643.031 126.045 642.395 125.92 641.667 125.92C640.875 125.92 640.195 126.084 639.628 126.412C639.06 126.74 638.597 127.188 638.237 127.756C637.877 128.324 637.612 128.98 637.44 129.725C637.268 130.47 637.181 131.264 637.181 132.108Z" fill="white"/>
<path d="M663.837 133.233L665.04 133.202C665.04 134.327 664.923 135.366 664.688 136.319C664.453 137.272 664.076 138.097 663.555 138.796C663.034 139.494 662.352 140.038 661.508 140.429C660.664 140.82 659.638 141.015 658.43 141.015C657.607 141.015 656.854 140.895 656.172 140.656C655.489 140.417 654.903 140.047 654.414 139.547C653.924 139.047 653.547 138.396 653.281 137.594C653.015 136.792 652.883 135.828 652.883 134.703V123.797H655.774V134.735C655.774 135.496 655.86 136.123 656.032 136.618C656.204 137.113 656.438 137.504 656.735 137.79C657.032 138.076 657.365 138.277 657.735 138.392C658.104 138.506 658.487 138.564 658.883 138.564C660.112 138.564 661.086 138.327 661.805 137.853C662.524 137.379 663.041 136.739 663.36 135.931C663.677 135.123 663.837 134.225 663.837 133.236V133.233ZM663.29 136.795V123.795H666.196V140.701H663.43L663.289 136.795H663.29Z" fill="white"/>
<path d="M670.665 123.795H673.571V142.717C673.571 143.748 673.407 144.623 673.079 145.342C672.751 146.061 672.261 146.605 671.61 146.975C670.959 147.344 670.138 147.53 669.149 147.53C668.888 147.53 668.584 147.504 668.235 147.452C667.886 147.399 667.592 147.337 667.352 147.264L667.368 144.936C667.566 144.977 667.79 145.011 668.04 145.038C668.29 145.063 668.509 145.077 668.696 145.077C669.123 145.077 669.482 144.999 669.774 144.843C670.065 144.687 670.287 144.437 670.438 144.093C670.588 143.749 670.665 143.29 670.665 142.718V123.796V123.795ZM670.368 119.311C670.368 118.842 670.514 118.447 670.806 118.123C671.097 117.8 671.519 117.639 672.072 117.639C672.634 117.639 673.061 117.8 673.353 118.123C673.644 118.446 673.791 118.842 673.791 119.311C673.791 119.759 673.645 120.142 673.353 120.459C673.061 120.776 672.634 120.936 672.072 120.936C671.519 120.936 671.097 120.777 670.806 120.459C670.514 120.142 670.368 119.759 670.368 119.311Z" fill="white"/>
<path d="M685.259 141.014C684.081 141.014 683.017 140.813 682.064 140.412C681.111 140.011 680.293 139.446 679.611 138.717C678.928 137.988 678.405 137.123 678.041 136.123C677.676 135.123 677.494 134.029 677.494 132.842V132.186C677.494 130.811 677.697 129.584 678.103 128.506C678.509 127.428 679.061 126.514 679.759 125.764C680.456 125.014 681.248 124.447 682.134 124.061C683.019 123.675 683.936 123.483 684.884 123.483C686.092 123.483 687.136 123.691 688.017 124.108C688.897 124.525 689.619 125.105 690.181 125.85C690.743 126.595 691.16 127.47 691.431 128.475C691.702 129.48 691.837 130.577 691.837 131.764V133.061H679.212V130.702H688.946V130.483C688.904 129.733 688.751 129.004 688.485 128.295C688.219 127.586 687.799 127.003 687.227 126.545C686.654 126.087 685.873 125.857 684.883 125.857C684.227 125.857 683.622 125.995 683.071 126.271C682.518 126.547 682.045 126.956 681.649 127.498C681.253 128.04 680.946 128.701 680.727 129.482C680.508 130.263 680.399 131.165 680.399 132.185V132.841C680.399 133.643 680.51 134.396 680.735 135.099C680.959 135.802 681.287 136.419 681.719 136.951C682.151 137.482 682.677 137.899 683.297 138.201C683.916 138.503 684.622 138.654 685.414 138.654C686.435 138.654 687.299 138.446 688.008 138.029C688.716 137.612 689.336 137.055 689.867 136.357L691.617 137.748C691.252 138.3 690.789 138.826 690.226 139.326C689.663 139.826 688.973 140.232 688.156 140.545C687.338 140.857 686.372 141.014 685.258 141.014H685.259Z" fill="white"/>
<path d="M696.29 123.795L701.056 138.17L701.384 140.701H699.446L693.321 123.795H696.29ZM700.15 138.092L704.775 123.795H707.728L701.65 140.701H699.712L700.15 138.092Z" fill="white"/>
<path d="M720.743 130.451L720.774 132.482H717.852C717.029 132.482 716.294 132.547 715.649 132.677C715.003 132.807 714.461 133.002 714.024 133.263C713.587 133.524 713.253 133.849 713.024 134.24C712.795 134.631 712.68 135.087 712.68 135.607C712.68 136.138 712.799 136.623 713.039 137.06C713.278 137.498 713.641 137.844 714.125 138.099C714.609 138.354 715.205 138.482 715.914 138.482C716.799 138.482 717.58 138.294 718.258 137.92C718.935 137.545 719.474 137.087 719.875 136.545C720.275 136.003 720.492 135.478 720.523 134.967L721.757 136.358C721.684 136.796 721.486 137.28 721.163 137.811C720.84 138.342 720.41 138.85 719.874 139.334C719.337 139.818 718.702 140.22 717.968 140.537C717.234 140.854 716.407 141.014 715.491 141.014C714.345 141.014 713.343 140.789 712.483 140.342C711.624 139.894 710.957 139.292 710.483 138.537C710.008 137.782 709.772 136.935 709.772 135.998C709.772 135.092 709.949 134.292 710.303 133.6C710.657 132.908 711.167 132.329 711.834 131.866C712.5 131.402 713.303 131.051 714.24 130.811C715.177 130.571 716.224 130.452 717.381 130.452H720.74L720.743 130.451ZM720.243 137.811V129.108C720.243 128.441 720.11 127.861 719.845 127.366C719.58 126.871 719.181 126.488 718.65 126.218C718.119 125.948 717.462 125.812 716.681 125.812C715.952 125.812 715.314 125.937 714.767 126.187C714.22 126.437 713.792 126.765 713.486 127.171C713.178 127.577 713.025 128.015 713.025 128.483H710.134C710.134 127.879 710.29 127.28 710.603 126.686C710.916 126.092 711.366 125.553 711.955 125.069C712.543 124.585 713.252 124.199 714.08 123.913C714.908 123.627 715.832 123.483 716.853 123.483C718.082 123.483 719.167 123.691 720.111 124.108C721.053 124.525 721.793 125.152 722.33 125.991C722.866 126.83 723.135 127.879 723.135 129.139V137.014C723.135 137.576 723.184 138.175 723.283 138.811C723.382 139.447 723.53 139.994 723.728 140.452V140.702H720.712C720.566 140.369 720.451 139.924 720.368 139.366C720.284 138.808 720.243 138.291 720.243 137.811Z" fill="white"/>
<path d="M734.447 138.639C735.135 138.639 735.769 138.498 736.353 138.217C736.936 137.936 737.415 137.548 737.791 137.053C738.167 136.558 738.379 135.993 738.432 135.358H741.182C741.129 136.358 740.793 137.288 740.174 138.147C739.554 139.006 738.744 139.699 737.744 140.225C736.744 140.75 735.644 141.014 734.447 141.014C733.176 141.014 732.069 140.789 731.127 140.342C730.184 139.894 729.402 139.28 728.783 138.498C728.163 137.717 727.699 136.818 727.392 135.803C727.084 134.787 726.931 133.712 726.931 132.576V131.92C726.931 130.784 727.084 129.709 727.392 128.693C727.699 127.677 728.163 126.779 728.783 125.998C729.402 125.217 730.183 124.602 731.127 124.154C732.069 123.706 733.176 123.482 734.447 123.482C735.769 123.482 736.926 123.751 737.916 124.287C738.905 124.823 739.684 125.553 740.252 126.475C740.819 127.397 741.129 128.441 741.182 129.608H738.432C738.379 128.91 738.184 128.28 737.846 127.717C737.507 127.155 737.049 126.704 736.471 126.365C735.893 126.026 735.218 125.857 734.448 125.857C733.562 125.857 732.82 126.032 732.221 126.38C731.621 126.729 731.148 127.197 730.799 127.786C730.449 128.375 730.199 129.025 730.049 129.739C729.898 130.453 729.822 131.179 729.822 131.919V132.575C729.822 133.314 729.894 134.044 730.041 134.763C730.187 135.482 730.434 136.133 730.783 136.716C731.132 137.299 731.605 137.766 732.205 138.114C732.804 138.463 733.551 138.637 734.447 138.637V138.639Z" fill="white"/>
<path d="M222.477 62.1089H229.289L233.707 95.4329H233.83L238.249 62.1089H244.447L237.942 105.068H228.982L222.477 62.1089Z" fill="white"/>
<path d="M247.698 62.1089H254.449V105.068H247.698V62.1089Z" fill="white"/>
<path d="M259.479 62.1089H269.667C276.664 62.1089 279.67 65.3609 279.67 71.9889V73.7079C279.67 78.1269 278.32 80.8889 275.313 82.1149V82.2379C278.934 83.4659 280.345 86.6569 280.345 91.1989V94.8809C280.345 101.509 276.847 105.069 270.096 105.069H259.479V62.1089ZM268.869 79.5989C271.386 79.5989 272.92 78.4939 272.92 75.0579V72.6629C272.92 69.5949 271.877 68.2449 269.483 68.2449H266.231V79.5989H268.869ZM270.096 98.9309C272.367 98.9309 273.594 97.8879 273.594 94.6969V90.9529C273.594 86.9639 272.305 85.7359 269.237 85.7359H266.23V98.9309H270.096Z" fill="white"/>
<path d="M284.271 62.1089H302.682V68.2459H291.022V79.5999H300.289V85.7369H291.022V98.9319H302.682V105.069H284.271V62.1089Z" fill="white"/>
<path d="M316.364 62.1089H334.223V68.2459H323.115V80.2129H331.829V86.3499H323.115V105.069H316.364V62.1089Z" fill="white"/>
<path d="M337.473 62.1089H355.884V68.2459H344.224V79.5999H353.491V85.7369H344.224V98.9319H355.884V105.069H337.473V62.1089Z" fill="white"/>
<path d="M358.705 94.8801V92.4251H365.088V95.3701C365.088 98.4391 366.438 99.5441 368.586 99.5441C370.734 99.5441 372.084 98.4401 372.084 95.2481C372.084 91.6881 370.734 89.4181 366.315 85.5521C360.669 80.5811 358.828 77.0831 358.828 72.1731C358.828 65.4221 362.326 61.4941 368.892 61.4941C375.458 61.4941 378.711 65.4221 378.711 72.2961V74.0751H372.329V71.8661C372.329 68.7981 371.101 67.6321 368.954 67.6321C366.807 67.6321 365.579 68.7981 365.579 71.7431C365.579 74.8731 366.991 77.1431 371.409 81.0111C377.055 85.9821 378.835 89.4181 378.835 94.7571C378.835 101.753 375.275 105.681 368.647 105.681C362.019 105.681 358.705 101.753 358.705 94.8801Z" fill="white"/>
<path d="M387.977 68.2449H380.919V62.1079H401.785V68.2449H394.727V105.067H387.976L387.977 68.2449Z" fill="white"/>
<path d="M405.036 62.1089H411.787V105.068H405.036V62.1089Z" fill="white"/>
<path d="M415.037 62.1089H421.849L426.268 95.4329H426.39L430.809 62.1089H437.007L430.502 105.068H421.542L415.037 62.1089Z" fill="white"/>
<path d="M443.756 62.1089H452.901L459.897 105.068H453.146L451.919 96.5369V96.6599H444.247L443.019 105.068H436.759L443.756 62.1089ZM451.121 90.8289L448.113 69.5949H447.991L445.045 90.8289H451.121Z" fill="white"/>
<path d="M463.148 62.1089H469.898V98.9309H481.006V105.068H463.148V62.1089Z" fill="white"/>
<path d="M763.187 178.412H63.187V46.1562H763.187V178.412ZM64.424 177.172H761.947V47.3943H64.424V177.172Z" fill="white"/>
<path d="M197.055 47.249H195.809V177.121H197.055V47.249Z" fill="white"/>
<path d="M507.513 47.249H506.262V177.966H507.513V47.249Z" fill="white"/>
<path d="M507.513 118.391H195.591V119.637H507.513V118.391Z" fill="black"/>
<path d="M507.513 118.391H195.591V119.637H507.513V118.391Z" fill="white"/>
<path d="M30.302 18.519C30.352 19.063 30.154 19.509 29.362 19.707L26.341 20.499C26.787 21.044 27.975 20.846 29.362 20.499L29.114 21.093C25.648 22.183 21.043 24.015 18.27 24.262L12.526 24.807C11.288 25.302 10.397 26.441 9.55499 27.877L9.85199 28.322C9.00999 29.956 7.62299 32.878 6.83099 34.561L6.435 34.313C6.088 34.808 6.48399 35.402 6.48399 35.997C6.48399 36.542 6.088 37.234 5.692 37.977L3.85899 38.571C3.16599 38.819 2.76999 38.274 2.42299 37.73L2.02699 38.076C1.43299 37.482 1.186 36.888 1.532 36.492C1.136 35.848 0.83899 35.254 0.73999 34.61C1.53199 33.026 2.37399 30.748 3.01799 29.312C3.76099 27.728 3.513 26.54 2.226 25.747L1.83 23.371C2.325 23.173 3.11699 22.529 3.21599 21.687L6.088 20.845L5.791 20.35C7.227 20.003 6.73199 18.716 7.42499 16.983L12.03 5.49599C12.624 4.05899 13.466 2.377 14.951 1.535L17.724 0C21.141 0 25.845 3.961 25.845 8.764C25.845 10.299 25.35 11.488 24.805 12.23C24.112 12.131 23.567 11.538 23.023 11.388C23.023 10.051 22.478 8.71499 21.636 7.77399C18.715 8.96199 16.883 14.162 14.308 18.42C14.754 18.866 15.843 18.222 16.833 18.816L15.298 19.163L15.744 19.51C17.229 19.312 19.309 18.965 20.745 18.767C20.993 18.718 21.537 19.213 21.042 19.362C20.696 19.461 20.349 19.659 20.349 20.055L24.261 19.312L25.152 19.857L26.539 19.559C26.885 19.51 27.282 19.411 27.43 18.965L30.302 18.519ZM3.713 26.589L3.961 27.877C4.209 27.629 4.35699 27.431 4.35699 27.232C4.35699 27.033 4.159 26.837 3.713 26.589ZM6.13899 32.977L5.79199 33.67L6.13899 34.017L6.931 32.58C6.634 32.58 6.33699 32.73 6.13899 32.977ZM8.31799 26.737C7.97099 26.886 7.52599 27.282 7.22899 27.925C7.08099 28.223 7.18 28.866 7.377 29.113L8.31799 26.737ZM10.1 25.896C9.80299 25.946 8.56499 26.589 8.56499 27.134C8.56499 27.382 8.862 27.579 9.11 27.579L10.1 25.896ZM20.845 21.836C20.251 22.034 19.607 21.935 19.458 22.183C19.359 22.331 19.31 22.678 19.458 22.628L20.845 22.281C21.043 22.231 20.944 21.786 20.845 21.836ZM24.311 20.944C22.826 21.044 22.38 21.489 21.439 21.736C21.29 21.786 21.29 22.182 21.439 22.132C22.974 21.736 23.915 21.538 24.162 21.736L25.647 21.291C25.3 20.895 24.905 20.895 24.311 20.944Z" fill="white"/>
<path d="M54.2701 9.35894C49.7641 11.3879 45.1591 11.5379 40.8021 12.7749C40.2571 13.6669 39.5641 14.8049 38.7221 16.1419C40.7031 15.9439 44.8121 14.2599 46.2481 14.2599C47.6841 14.2599 48.1301 14.7549 49.1691 16.5379C48.9711 17.0819 49.2191 17.5769 49.7141 17.8249L49.3671 18.9139C46.3461 19.4089 38.9691 20.5979 36.4931 21.6869C35.2061 22.2309 34.0671 27.6779 34.0171 28.8169C35.5521 29.9559 37.8791 29.4609 39.3151 29.1139L39.6121 29.6089C39.9591 29.6089 40.4041 29.3119 40.4041 29.0149C41.1471 28.9149 41.3941 30.1039 42.0881 29.9059C45.3061 29.0149 49.1191 27.7279 51.5951 26.9349C51.7431 26.8859 51.9421 26.8359 51.9911 26.9849C52.0901 27.2319 51.3471 27.5789 50.9511 27.7769L47.5841 29.0149C47.8811 29.2129 48.4261 29.5599 48.7721 29.7569C48.9201 29.8069 48.8211 29.9049 48.6731 29.9549C46.1971 30.7969 43.1281 31.6389 40.3551 32.3319C41.0981 32.6789 42.1871 32.6789 43.1281 32.4309C45.1081 31.8869 47.8321 30.9459 50.2581 30.1039C50.4061 30.0549 50.7531 29.9059 50.5061 30.4009C50.2091 30.8959 49.8131 31.2429 49.1201 31.4909C45.9011 32.7289 41.7421 34.2149 38.7221 34.2149C32.9291 34.2149 28.8191 31.5899 29.0171 24.3609C29.1161 20.6969 32.1361 16.1909 35.7511 8.61494C35.5031 7.37794 35.5531 6.18894 36.4441 4.85194C38.9201 5.14894 40.3561 1.33594 42.0891 1.33594C43.0301 1.33594 45.6541 2.07794 46.2981 2.27594C46.3471 3.36594 46.1001 4.50493 45.4061 5.84093C46.2481 6.03893 48.6251 6.28593 49.7141 6.28593L50.1591 7.22594C50.4071 7.22594 50.8521 6.92894 51.3971 6.92894C51.9421 6.92894 53.1301 7.42393 53.8231 7.52393C53.9221 7.52393 54.0211 7.62294 53.9221 7.72094C51.9421 9.50394 50.5551 8.41393 50.9011 9.89993C52.3871 9.30593 53.6251 8.95993 55.0111 8.31593C55.2091 8.21593 55.5061 7.87094 55.5561 8.16794C55.6551 8.66294 54.7641 8.95993 54.2681 9.35593L54.2701 9.35894ZM33.3251 26.6389C33.1271 27.5309 33.0771 28.1739 33.4731 28.4709L33.7211 27.1339L33.3251 26.6389ZM34.1171 23.8169L33.5721 25.6489L33.9191 26.0939L34.6121 23.7669L34.1171 23.8169ZM34.2161 23.4699H34.2661C34.5631 23.0739 34.9591 22.6779 35.1571 22.1829C34.5131 22.1329 34.3151 22.4299 34.2161 22.9249V23.4699ZM37.0391 16.2899L37.6831 16.1909L38.1781 15.0519C37.8311 15.0519 37.1881 15.7439 37.0391 16.2889V16.2899ZM39.3161 12.9729L38.4741 14.3599L39.1181 14.2119L39.9601 12.8249L39.3161 12.9729ZM45.7531 27.8269C44.3671 28.8669 42.6341 29.5599 42.0401 28.6189C44.3171 28.1239 46.5951 27.3819 48.4271 26.6389C48.6251 26.5399 48.6751 26.6889 48.5751 26.8369C47.9811 27.5299 46.6941 27.8769 45.7531 27.8269ZM50.4071 7.82294L50.5561 8.41694L51.4471 8.02094C51.3971 7.77294 50.7041 7.72294 50.4071 7.82294Z" fill="white"/>
<path d="M80.8609 9.35894C76.3549 11.3879 71.7499 11.5379 67.3929 12.7749C66.8489 13.6669 66.1549 14.8049 65.3129 16.1419C67.2939 15.9439 71.4029 14.2599 72.8389 14.2599C74.2749 14.2599 74.7209 14.7549 75.7599 16.5379C75.5619 17.0819 75.8099 17.5769 76.3049 17.8249L75.9579 18.9139C72.9369 19.4089 65.5599 20.5979 63.0839 21.6869C61.7969 22.2309 60.6579 27.6779 60.6079 28.8169C62.1429 29.9559 64.4699 29.4609 65.9059 29.1139L66.2029 29.6089C66.5499 29.6089 66.9949 29.3119 66.9949 29.0149C67.7379 28.9149 67.9849 30.1039 68.6789 29.9059C71.8969 29.0149 75.7099 27.7279 78.1859 26.9349C78.3339 26.8859 78.5329 26.8359 78.5819 26.9849C78.6809 27.2319 77.9379 27.5789 77.5419 27.7769L74.1749 29.0149C74.4719 29.2129 75.0169 29.5599 75.3629 29.7569C75.5109 29.8069 75.4119 29.9049 75.2639 29.9549C72.7879 30.7969 69.7189 31.6389 66.9459 32.3319C67.6889 32.6789 68.7779 32.6789 69.7189 32.4309C71.6989 31.8869 74.4229 30.9459 76.8489 30.1039C76.9969 30.0549 77.3439 29.9059 77.0969 30.4009C76.7999 30.8959 76.4039 31.2429 75.7109 31.4909C72.4919 32.7289 68.3329 34.2149 65.3129 34.2149C59.5199 34.2149 55.4099 31.5899 55.6079 24.3609C55.7069 20.6969 58.7269 16.1909 62.3419 8.61494C62.0939 7.37794 62.1439 6.18894 63.0349 4.85194C65.5109 5.14894 66.9469 1.33594 68.6799 1.33594C69.6209 1.33594 72.2449 2.07794 72.8889 2.27594C72.9379 3.36594 72.6909 4.50493 71.9969 5.84093C72.8389 6.03893 75.2159 6.28593 76.3049 6.28593L76.7499 7.22594C76.9979 7.22594 77.4429 6.92894 77.9879 6.92894C78.5329 6.92894 79.7209 7.42393 80.4139 7.52393C80.5129 7.52393 80.6119 7.62294 80.5129 7.72094C78.5329 9.50394 77.1459 8.41393 77.4919 9.89993C78.9779 9.30593 80.2159 8.95993 81.6019 8.31593C81.7999 8.21593 82.0969 7.87094 82.1469 8.16794C82.2459 8.66294 81.3549 8.95993 80.8589 9.35593L80.8609 9.35894ZM59.9159 26.6389C59.7179 27.5309 59.6679 28.1739 60.0639 28.4709L60.3119 27.1339L59.9159 26.6389ZM60.7089 23.8169L60.1639 25.6489L60.5109 26.0939L61.2039 23.7669L60.7089 23.8169ZM60.8069 23.4699H60.8569C61.1539 23.0739 61.5499 22.6779 61.7479 22.1829C61.1039 22.1329 60.9059 22.4299 60.8069 22.9249V23.4699ZM63.6299 16.2899L64.2739 16.1909L64.7689 15.0519C64.4219 15.0519 63.7789 15.7439 63.6299 16.2889V16.2899ZM65.9069 12.9729L65.0649 14.3599L65.7089 14.2119L66.5509 12.8249L65.9069 12.9729ZM72.3439 27.8269C70.9579 28.8669 69.2249 29.5599 68.6309 28.6189C70.9079 28.1239 73.1859 27.3819 75.0179 26.6389C75.2159 26.5399 75.2659 26.6889 75.1659 26.8369C74.5719 27.5299 73.2849 27.8769 72.3439 27.8269ZM76.9989 7.82294L77.1479 8.41694L78.0389 8.02094C77.9889 7.77294 77.2959 7.72294 76.9989 7.82294Z" fill="white"/>
<path d="M108.244 23.5678C107.204 24.2608 106.412 24.4598 105.917 24.4098C105.323 24.4098 105.174 24.3108 105.075 24.1628C104.184 25.0548 105.62 25.7968 108.987 24.4598C109.235 24.4098 109.631 24.5588 109.432 24.6578C108.492 25.1028 106.411 26.1928 105.719 26.1928C104.58 26.1928 103.739 26.4898 102.698 26.8368C99.5781 27.9258 94.6271 29.8078 91.0621 31.2428C90.4181 31.4908 89.3781 32.4808 88.7841 32.5308C88.1901 32.6298 86.9521 32.7288 86.3081 32.7288C85.9121 32.7288 85.6151 32.4808 85.4661 32.1838H84.3271C83.5841 31.4408 82.7431 29.9058 82.0991 29.9058H81.5051C82.3471 21.1918 91.2591 7.82282 95.7651 2.02982V1.23682C98.5381 1.23682 99.9741 3.46581 99.9741 5.84181C99.9741 6.43581 97.4491 12.0798 96.5571 13.7148C95.9631 14.7538 94.3781 16.2388 93.5361 17.4278C93.0901 18.0718 92.7931 19.3598 92.3971 20.0528C91.8531 21.0428 90.1691 21.8848 90.7631 23.3208C94.1301 22.2808 94.7741 22.1818 95.1701 22.0828C95.7151 21.9348 96.3581 21.7858 97.0021 21.7858C97.7941 21.7858 98.5371 22.0338 98.9331 22.7258C99.1811 22.4788 101.161 21.6868 101.409 21.6868C102.102 21.6868 102.152 21.9338 102.845 21.9338C103.489 21.9338 106.064 21.0918 107.747 20.5968C107.797 20.6968 107.995 20.7948 108.341 20.8448V20.8938C106.806 21.3898 104.776 21.8848 103.489 22.6768L103.984 22.9738C105.519 22.4288 108.638 21.0428 110.371 20.6468C110.965 20.8448 111.659 21.2908 111.708 21.3898C112.451 21.0918 113.738 20.3988 113.788 20.7448C113.936 21.4378 110.767 22.9238 108.242 23.5668L108.244 23.5678ZM90.2211 20.2018C89.8741 21.0928 89.2801 21.9338 89.9241 22.2308L90.8161 20.3498L90.2221 20.2018H90.2211ZM103.194 25.3998C100.57 25.8948 95.0731 27.9248 91.6571 29.6088L91.7071 29.8068L103.987 25.7458L103.195 25.3988L103.194 25.3998ZM93.0931 16.3888C92.5981 16.3888 92.4001 16.9838 92.4001 17.2808H93.0931V16.3888ZM99.4311 23.5198L100.52 22.9248C100.272 22.7768 99.7281 22.7268 99.1341 23.1228L99.4311 23.5198ZM108.938 20.5978C108.79 20.6478 108.394 20.3998 108.542 20.3508L109.532 20.0538C110.077 19.9048 110.027 20.2018 109.78 20.3008L108.938 20.5978ZM110.225 24.3118C109.878 24.4598 109.68 24.3618 109.532 24.1638V24.1138C112.453 22.8268 112.8 22.6288 113.196 22.9258L110.225 24.3118ZM112.107 20.7458C111.859 20.5488 111.612 20.3988 111.364 20.3008C111.562 20.1528 113.295 19.5578 113.295 19.8058C113.295 20.1028 112.453 20.4988 112.107 20.7458Z" fill="white"/>
<path d="M25.202 58.5941C24.806 59.4351 24.954 61.6141 23.914 62.6041C24.607 63.0001 24.211 64.2391 23.567 64.8331C23.864 65.5761 24.062 66.1201 23.023 67.5071C22.973 67.7051 23.468 67.4571 23.567 67.3591C23.468 69.0431 23.072 70.3801 22.577 71.8651C21.042 71.8651 19.656 70.3801 18.864 70.6771C18.913 69.6871 18.765 69.2901 18.072 69.2901L18.121 68.5981C18.369 68.5981 18.567 68.4491 18.617 68.1031C18.369 68.1031 18.171 67.9541 18.171 67.6071C18.27 66.4681 18.864 65.0331 19.161 63.5471C19.508 63.5471 19.508 64.1911 19.458 64.9341C19.805 64.9341 20.35 62.9041 20.449 61.7651L19.855 61.5171C19.805 62.3091 19.805 63.3991 19.211 63.1511C19.36 62.4581 19.508 60.7251 19.657 60.1301L20.499 61.1701C20.45 60.5761 20.697 60.4281 20.598 59.6851C17.776 59.5861 10.299 63.5971 8.071 65.1311L7.823 65.7751L8.021 66.3701C7.179 68.1031 6.437 70.1331 5.644 71.1731L2.52499 69.8361C2.37599 68.3011 0.246992 67.6571 0.791992 66.3701H0C1.089 58.8931 9.358 50.8721 14.013 44.6331C16.34 41.5641 18.667 39.4841 20.598 37.9481C20.945 37.6511 22.331 38.1461 22.43 37.2061C23.074 37.4041 24.46 37.9981 25.203 38.5921L24.311 38.8901C24.262 39.7321 25.499 38.7901 25.747 38.9891C27.579 40.5741 26.539 43.2481 27.48 44.6831C27.53 44.9301 27.431 49.1891 26.688 49.6341C26.787 49.7341 26.836 49.7341 26.985 49.8321C26.688 50.9221 26.292 52.3571 26.193 53.7441C26.143 54.3381 28.025 56.0211 27.877 58.2001C26.985 58.2991 26.044 58.4971 25.203 58.5961L25.202 58.5941ZM9.506 62.5551C9.258 62.9021 9.159 63.1001 8.961 63.4461L12.724 61.4661C12.08 60.9711 10.446 62.0601 9.506 62.5551ZM11.635 60.4751C11.239 60.6231 10.942 60.6731 10.595 60.8221L10.001 61.6641C10.199 61.5651 11.338 61.1681 11.635 60.4751ZM23.717 43.5411C22.777 43.5901 20.499 46.3631 18.37 49.1861L18.122 48.9381C18.271 48.5421 18.419 48.2461 18.221 48.0471C17.429 48.9381 17.082 49.3841 17.528 50.3241C16.785 51.3141 16.092 52.2061 15.448 52.9981C14.556 54.1371 13.219 56.2661 12.081 57.9001C13.071 57.3051 13.814 56.2651 15.794 55.4241C17.527 54.6811 18.567 54.4831 20.35 53.9871C20.498 52.7001 20.994 51.7581 21.192 51.0661L22.034 51.8081C22.628 50.2731 23.321 46.2621 23.866 44.0351L23.717 43.5411ZM15.052 60.2761V60.2271C13.963 60.2761 13.517 60.3751 13.319 61.1671C13.765 60.9201 14.507 60.6231 15.052 60.2761ZM19.409 65.2771L19.211 65.9221H19.508L19.706 65.1291L19.409 65.2771ZM20.944 53.3451C20.746 53.9391 21.092 53.9391 21.439 53.8901L21.488 53.3451H20.944ZM21.389 52.5531L21.191 52.5031L20.993 53.0481H21.439L21.389 52.5531ZM22.825 46.4621H22.379L22.775 45.1251L23.22 44.9271L22.824 46.4621H22.825Z" fill="white"/>
<path d="M38.5731 45.4223C39.5141 42.7983 41.1981 38.9852 42.5841 36.9062H43.4751C45.4561 36.9062 46.1491 38.5402 46.4461 39.2332H45.7531C45.7531 39.8272 46.0011 40.6192 46.3471 40.6192C47.7331 40.6192 48.8721 39.3822 50.4571 38.8372C51.3971 38.5402 52.8831 38.2923 53.3781 38.2923C54.4671 38.2923 55.7051 41.2143 56.1501 42.5513C55.6551 42.6003 55.2591 42.9472 55.6551 43.4422C54.9121 44.6302 54.1701 46.7113 53.2291 46.6113C52.5851 46.5623 50.9521 48.3943 50.4071 48.3443C49.4661 48.2453 48.8231 49.2843 47.8321 50.0773L47.4851 49.8293C46.9411 50.2253 45.8011 50.9683 45.3561 51.5623L45.5541 51.7103C47.1381 51.6103 49.4161 51.3633 51.1991 51.3633C53.6251 51.3633 55.5561 52.7502 57.0911 53.8882C57.8341 55.0762 58.7751 57.7502 59.2701 59.3342C58.9231 59.5322 58.6261 59.2842 58.2801 59.4332C57.5871 60.4732 53.2791 63.7903 53.0311 63.7903C51.9421 63.7413 50.6541 64.0882 49.5651 64.6322L49.7631 65.3752C48.6241 66.4152 46.7921 66.8112 46.0991 66.1172C45.8511 66.3652 45.7031 66.9103 45.5541 67.3053C40.2561 70.1773 36.3941 71.1172 36.9391 72.2072C36.5921 72.5042 36.2461 72.6033 35.8991 72.6033C34.8101 72.6033 33.9681 71.1182 32.5321 70.9202C32.6311 70.3752 32.6311 69.7802 32.0361 70.0782C32.1851 69.3852 32.0361 68.2952 31.7881 67.6012C32.6301 67.2052 33.5711 66.8092 34.4131 66.3642C33.5221 66.1162 32.9281 65.2253 32.2341 64.9283L32.6801 64.1852C32.1851 63.7892 32.0361 63.4423 31.8381 62.9973L36.8881 49.4792C36.0961 49.0832 35.9481 48.3402 36.0461 47.4492L38.5711 45.4193L38.5731 45.4223ZM36.5931 64.0403L36.9401 64.2383L37.3361 63.6933C37.0391 63.5453 36.8411 63.7433 36.5931 64.0403ZM40.3061 56.0193C39.7621 56.0193 39.6621 56.3663 39.4151 56.3663L39.9101 56.7623C39.6621 57.2073 39.3161 57.7023 38.9691 57.7023C39.4641 58.3953 39.1181 59.1873 38.7211 60.1783C38.3251 60.5253 37.7811 60.7722 37.5821 61.2182C38.2261 61.2182 38.0281 61.5152 37.8301 61.7132C37.3351 62.1092 37.0381 62.4062 37.5821 63.3472L38.4241 62.3073L38.3741 63.8423H38.0281C37.9291 64.0903 37.8301 64.3873 37.8301 64.7343C40.0091 63.7443 41.7911 63.1002 42.2871 63.5952C42.5351 62.9502 43.4261 62.5053 44.5151 61.9113C45.0101 62.8023 45.2081 61.8112 45.7031 61.8112C46.0991 61.8112 46.6431 61.9593 46.8421 61.1183C48.9711 60.1283 51.3481 58.9392 53.2291 56.4642C48.8221 54.7802 46.9411 56.7122 42.8801 56.7122C41.8901 56.7122 40.9001 56.0193 40.3051 56.0193H40.3061ZM37.9791 58.9892C37.9791 59.2862 37.8311 59.6823 37.6321 59.8813L37.8301 60.2283C38.2261 59.8813 38.5231 59.3862 38.5231 58.9902H37.9781L37.9791 58.9892ZM38.7711 61.5152C38.6221 61.4162 38.5731 61.3172 38.6721 61.1192C38.7211 60.7232 39.2661 60.1292 39.5631 59.8822L38.7711 61.5163V61.5152ZM39.4151 68.7442C39.5141 68.8432 39.6131 68.9413 39.6631 68.9913C39.7621 69.0413 39.8611 69.0412 39.9111 69.0412C40.0101 69.0412 40.1591 68.9412 40.3071 68.7932L39.4161 68.7442H39.4151ZM39.6621 59.4352C39.4141 59.3362 39.8601 57.9502 40.2071 57.3062L40.5041 57.5542L39.6621 59.4352ZM40.6531 68.0513C40.6531 68.2983 40.9501 68.6953 41.4951 68.6953C42.0401 68.6953 42.1391 68.0513 41.8911 68.0513C41.3961 68.2493 40.9011 68.1013 40.6531 68.0513ZM49.2681 64.9812C48.8221 64.9322 48.0801 65.1792 47.8321 65.3772C48.0801 65.5252 48.3271 65.5753 48.5751 65.5753C48.8231 65.5753 49.0701 65.3782 49.2681 64.9812ZM48.6251 54.8302L48.5751 55.2262C49.0701 55.3252 49.5651 55.2753 49.6151 54.9783L48.6251 54.8302ZM50.2591 65.2292C50.2591 64.7342 50.6061 64.4362 51.2001 64.4362C51.3981 64.4362 51.5471 64.4863 51.6951 64.5853L50.2591 65.2292ZM52.7341 63.0002L51.9421 63.2482C51.8921 63.5952 52.6351 63.4953 52.8331 63.4453L52.7341 63.0002ZM56.4971 60.3262L57.4381 59.5343C57.1901 59.1873 56.4971 59.7323 56.1501 59.9303L56.4971 60.3262Z" fill="white"/>
<path d="M88.6849 58.2959C88.9329 58.7909 88.5859 59.3359 88.0409 59.3359L87.6939 58.6919C87.2979 58.7909 87.0009 58.9889 87.2979 59.5339C86.7529 59.5339 85.8619 59.9789 85.8619 60.5239C85.8619 61.2659 85.0199 61.0189 84.4259 61.1679C83.8819 61.7129 83.4359 62.3559 82.8419 63.1479L82.2979 62.6529C81.0099 63.4449 81.7039 63.9899 80.3669 64.6329C79.5749 65.0289 78.6339 64.9799 77.7419 65.1779C77.5939 65.3259 78.1879 65.5249 78.1379 65.7229L77.2469 66.0199L75.8609 65.1779C75.0689 65.6729 75.6629 66.8119 74.6729 67.1579C73.4849 67.5539 72.5439 67.9009 71.1569 68.3459C70.3149 67.5039 69.3249 67.8009 68.6319 68.3459C66.8989 67.2569 64.7699 65.6219 63.4829 64.5339C62.2949 63.5939 61.8989 61.1669 61.8989 58.7899C61.8989 46.7579 76.9019 38.9839 80.6159 38.9839C82.0519 38.9839 82.7449 39.8759 84.2799 41.0639C84.2799 43.3409 86.7059 45.1729 88.7359 46.5599C90.6669 47.8469 91.3109 50.3229 91.3109 52.9969C91.3109 54.6309 90.4699 56.8589 88.6869 58.2949L88.6849 58.2959ZM83.3369 48.1459C83.1889 47.7009 83.0889 47.4039 82.8909 47.6009C82.6929 47.7989 82.4949 47.8989 82.3469 47.8989C81.9999 47.8989 81.8019 47.5029 81.7529 47.5029C79.1289 47.5029 74.5729 50.5239 72.4939 53.7909C70.1179 54.9299 68.4829 57.7529 67.3939 61.1689C68.5329 61.0699 70.0189 60.9709 70.9099 60.6239L79.8229 56.9109C80.8129 56.5149 82.9429 55.4739 83.8839 54.2859L86.1119 51.3649L83.3389 48.1459H83.3369ZM71.0569 53.6919C70.3139 53.2469 69.4229 53.9389 69.3239 54.4839C69.3239 54.7809 69.4719 55.0289 69.9179 55.0789L71.0569 53.6919ZM71.2559 67.4559C71.0579 67.1589 70.7119 66.9119 70.3649 66.9119C70.1669 66.9609 69.9689 67.0109 69.7709 67.2089L71.2559 67.4559ZM77.7419 63.9899C77.7419 64.1379 77.5439 64.4849 77.6429 64.5849C77.8409 64.7329 78.2369 64.5849 78.4849 64.4849C78.4849 64.1379 78.2369 63.9899 77.7419 63.9899ZM80.4159 62.5549C79.5249 62.9999 79.1779 63.2479 79.2279 63.7919L80.6639 63.0499L80.4159 62.5549ZM81.8019 61.3659L81.0099 62.2079L81.2079 62.7529L82.1979 62.1579C82.0499 62.0099 81.9499 61.4649 81.8019 61.3659Z" fill="white"/>
<path d="M128.399 39.1339C128.696 38.9359 129.043 38.9859 129.092 39.2339C126.616 41.2629 124.883 45.4219 122.259 47.1059C120.229 46.8589 120.774 49.3349 119.882 49.3839C119.189 49.3839 118.842 50.3739 118.347 51.0679C114.485 56.5139 107.354 63.1989 101.908 69.1399L98.8381 68.1009C97.9961 66.6149 96.5601 65.2289 96.5101 63.1989C96.4111 60.3769 97.3021 44.1359 97.5011 41.2149C97.5501 40.0759 96.4611 38.1449 97.6001 37.2529C101.413 38.7879 102.997 42.4519 103.195 46.6109C102.601 48.2949 103.641 49.5829 103.492 51.0179L102.947 51.1169C102.699 52.6519 102.353 54.1869 101.907 55.6229L102.699 57.8019C107.601 53.3459 111.612 48.4929 115.573 43.1959C117.653 43.2949 117.108 41.3639 119.633 41.6109L121.564 39.5319C121.96 39.0859 122.703 39.1849 122.901 39.6309C122.357 40.3739 120.227 42.7009 118.247 44.4839C118.049 44.6819 118.346 44.8309 118.742 44.6819C120.623 43.1469 123.743 39.8789 124.387 38.9879C125.031 39.0379 125.625 37.7009 126.516 38.4429C125.971 38.8889 125.03 39.7309 125.179 40.5729C125.674 39.9779 126.417 39.1859 126.912 39.3349L127.06 39.3849C126.317 40.2269 125.08 41.8609 124.287 43.1479L124.634 43.2479C125.526 42.1579 126.912 40.3759 128.397 39.1379L128.399 39.1339ZM101.067 54.2849C101.017 54.6809 101.166 55.0779 101.512 55.0779L101.611 54.2849H101.067ZM101.364 52.8499L101.166 53.7419L101.71 53.9389C101.71 53.4939 102.106 52.8499 101.363 52.8499H101.364ZM116.119 51.9579L116.416 52.5529C117.258 51.6609 117.208 51.0679 116.861 50.8689L116.119 51.9579ZM118.397 48.4919C118.694 48.7399 118.991 48.7889 119.189 48.7889C119.684 48.7399 119.981 48.1949 120.03 47.5519L118.397 48.4919ZM121.764 48.4919L121.318 48.0959C121.516 47.6009 121.862 47.4519 122.16 47.6509L121.764 48.4929V48.4919ZM123.695 43.8379L122.655 44.8779C122.061 45.1749 122.259 45.9179 122.903 45.4219C123.596 44.8779 124.042 44.1849 124.191 43.8879C123.894 44.0359 123.745 43.7399 123.695 43.8379ZM127.408 38.1439C127.556 37.9459 127.804 37.7969 128.002 37.7969C128.15 37.7969 128.299 37.8469 128.448 38.0939C128.2 38.2429 127.952 38.4409 127.457 38.9859C127.358 38.8379 127.16 38.8379 126.962 38.8379C127.061 38.6399 127.21 38.3919 127.408 38.1439Z" fill="white"/>
<path d="M148.702 44.73C144.196 46.759 139.591 46.909 135.234 48.146C134.69 49.038 133.996 50.176 133.154 51.513C135.135 51.315 139.244 49.631 140.68 49.631C142.116 49.631 142.562 50.126 143.601 51.909C143.403 52.453 143.651 52.948 144.146 53.196L143.799 54.285C140.778 54.78 133.401 55.969 130.925 57.058C129.638 57.602 128.499 63.049 128.449 64.188C129.984 65.327 132.311 64.832 133.747 64.485L134.044 64.98C134.391 64.98 134.836 64.683 134.836 64.386C135.579 64.286 135.826 65.475 136.52 65.277C139.738 64.386 143.551 63.099 146.027 62.306C146.175 62.257 146.374 62.207 146.423 62.356C146.522 62.603 145.779 62.95 145.383 63.148L142.016 64.386C142.313 64.584 142.858 64.931 143.204 65.128C143.352 65.178 143.253 65.276 143.105 65.326C140.629 66.168 137.56 67.01 134.787 67.703C135.53 68.05 136.619 68.05 137.56 67.802C139.54 67.258 142.264 66.317 144.69 65.475C144.838 65.426 145.185 65.277 144.938 65.772C144.641 66.267 144.245 66.614 143.552 66.862C140.333 68.1 136.174 69.586 133.154 69.586C127.361 69.586 123.251 66.961 123.449 59.732C123.548 56.068 126.568 51.562 130.183 43.986C129.935 42.749 129.985 41.56 130.876 40.223C133.352 40.52 134.788 36.707 136.521 36.707C137.462 36.707 140.086 37.449 140.73 37.647C140.779 38.737 140.532 39.876 139.838 41.212C140.68 41.41 143.057 41.657 144.146 41.657L144.591 42.597C144.839 42.597 145.284 42.3 145.829 42.3C146.374 42.3 147.562 42.795 148.255 42.895C148.354 42.895 148.453 42.994 148.354 43.092C146.374 44.875 144.987 43.785 145.333 45.271C146.819 44.677 148.057 44.331 149.443 43.687C149.641 43.587 149.938 43.242 149.988 43.539C150.087 44.034 149.196 44.331 148.7 44.727L148.702 44.73ZM127.757 62.01C127.559 62.902 127.509 63.545 127.905 63.842L128.153 62.505L127.757 62.01ZM128.55 59.188L128.005 61.02L128.352 61.465L129.045 59.138L128.55 59.188ZM128.648 58.841H128.698C128.995 58.445 129.391 58.049 129.589 57.554C128.945 57.504 128.747 57.801 128.648 58.296V58.841ZM131.471 51.661L132.115 51.562L132.61 50.423C132.263 50.423 131.62 51.115 131.471 51.66V51.661ZM133.748 48.344L132.906 49.731L133.55 49.583L134.392 48.196L133.748 48.344ZM140.185 63.198C138.799 64.238 137.066 64.931 136.472 63.99C138.749 63.495 141.027 62.753 142.859 62.01C143.057 61.911 143.107 62.06 143.007 62.208C142.413 62.901 141.126 63.248 140.185 63.198ZM144.84 43.194L144.989 43.788L145.88 43.392C145.83 43.144 145.137 43.094 144.84 43.194Z" fill="white"/>
<path d="M25.202 93.9651C24.806 94.8061 24.954 96.9851 23.914 97.9751C24.607 98.3711 24.211 99.6101 23.567 100.204C23.864 100.947 24.062 101.491 23.023 102.878C22.973 103.076 23.468 102.828 23.567 102.73C23.468 104.414 23.072 105.751 22.577 107.236C21.042 107.236 19.656 105.751 18.864 106.048C18.913 105.058 18.765 104.661 18.072 104.661L18.121 103.969C18.369 103.969 18.567 103.82 18.617 103.474C18.369 103.474 18.171 103.325 18.171 102.978C18.27 101.839 18.864 100.404 19.161 98.9181C19.508 98.9181 19.508 99.5621 19.458 100.305C19.805 100.305 20.35 98.2751 20.449 97.1361L19.855 96.8881C19.805 97.6801 19.805 98.7701 19.211 98.5221C19.36 97.8291 19.508 96.0961 19.657 95.5011L20.499 96.5411C20.45 95.9471 20.697 95.7991 20.598 95.0561C17.776 94.9571 10.299 98.9681 8.071 100.502L7.823 101.146L8.021 101.741C7.179 103.474 6.437 105.504 5.644 106.544L2.52499 105.207C2.37599 103.672 0.246992 103.028 0.791992 101.741H0C1.089 94.2641 9.358 86.2431 14.013 80.0041C16.34 76.9351 18.667 74.8551 20.598 73.3191C20.945 73.0221 22.331 73.5171 22.43 72.5771C23.074 72.7751 24.46 73.3691 25.203 73.9631L24.311 74.2611C24.262 75.1031 25.499 74.1611 25.747 74.3601C27.579 75.9451 26.539 78.6191 27.48 80.0541C27.53 80.3011 27.431 84.5601 26.688 85.0051C26.787 85.1051 26.836 85.1051 26.985 85.2031C26.688 86.2931 26.292 87.7281 26.193 89.1151C26.143 89.7091 28.025 91.3921 27.877 93.5711C26.985 93.6701 26.044 93.8681 25.203 93.9671L25.202 93.9651ZM9.506 97.9261C9.258 98.2731 9.159 98.4711 8.961 98.8171L12.724 96.8371C12.08 96.3421 10.446 97.4311 9.506 97.9261ZM11.635 95.8461C11.239 95.9941 10.942 96.0441 10.595 96.1931L10.001 97.0351C10.199 96.9361 11.338 96.5391 11.635 95.8461ZM23.717 78.9121C22.777 78.9611 20.499 81.7341 18.37 84.5571L18.122 84.3091C18.271 83.9131 18.419 83.6171 18.221 83.4181C17.429 84.3091 17.082 84.7551 17.528 85.6951C16.785 86.6851 16.092 87.5771 15.448 88.3691C14.556 89.5081 13.219 91.6371 12.081 93.2711C13.071 92.6761 13.814 91.6361 15.794 90.7951C17.527 90.0521 18.567 89.8541 20.35 89.3581C20.498 88.0711 20.994 87.1291 21.192 86.4371L22.034 87.1791C22.628 85.6441 23.321 81.6331 23.866 79.4061L23.717 78.9121ZM15.052 95.6481V95.5991C13.963 95.6481 13.517 95.7471 13.319 96.5391C13.765 96.2921 14.507 95.9941 15.052 95.6471V95.6481ZM19.409 100.649L19.211 101.294H19.508L19.706 100.501L19.409 100.649ZM20.944 88.7161C20.746 89.3101 21.092 89.3101 21.439 89.2611L21.488 88.7161H20.944ZM21.389 87.9241L21.191 87.8741L20.993 88.4191H21.439L21.389 87.9241ZM22.825 81.8331H22.379L22.775 80.4961L23.22 80.2981L22.824 81.8331H22.825Z" fill="white"/>
<path d="M57.636 94.311C56.596 95.004 55.804 95.203 55.309 95.153C54.715 95.153 54.566 95.054 54.467 94.906C53.576 95.798 55.012 96.54 58.379 95.203C58.627 95.153 59.023 95.302 58.824 95.401C57.884 95.846 55.803 96.936 55.111 96.936C53.972 96.936 53.131 97.233 52.09 97.58C48.97 98.669 44.019 100.551 40.454 101.986C39.81 102.234 38.77 103.224 38.176 103.274C37.582 103.373 36.344 103.472 35.7 103.472C35.304 103.472 35.007 103.224 34.858 102.927H33.719C32.976 102.184 32.135 100.649 31.491 100.649H30.897C31.739 91.935 40.651 78.566 45.157 72.773V71.98C47.93 71.98 49.366 74.209 49.366 76.585C49.366 77.179 46.841 82.823 45.949 84.458C45.355 85.497 43.77 86.982 42.928 88.171C42.482 88.815 42.185 90.103 41.789 90.796C41.245 91.786 39.561 92.628 40.155 94.064C43.522 93.024 44.166 92.925 44.562 92.826C45.107 92.678 45.75 92.529 46.394 92.529C47.186 92.529 47.929 92.777 48.325 93.469C48.573 93.222 50.553 92.43 50.801 92.43C51.494 92.43 51.544 92.677 52.237 92.677C52.881 92.677 55.456 91.835 57.139 91.34C57.189 91.44 57.387 91.538 57.733 91.588V91.637C56.198 92.133 54.168 92.628 52.881 93.42L53.376 93.717C54.911 93.172 58.03 91.786 59.763 91.39C60.357 91.588 61.051 92.034 61.1 92.133C61.843 91.835 63.13 91.142 63.18 91.488C63.328 92.181 60.159 93.667 57.634 94.31L57.636 94.311ZM39.613 90.944C39.266 91.835 38.672 92.676 39.316 92.973L40.208 91.092L39.614 90.944H39.613ZM52.586 96.143C49.962 96.638 44.465 98.668 41.049 100.352L41.099 100.55L53.379 96.489L52.587 96.142L52.586 96.143ZM42.485 87.131C41.99 87.131 41.792 87.726 41.792 88.023H42.485V87.131ZM48.823 94.262L49.912 93.667C49.664 93.519 49.12 93.469 48.526 93.865L48.823 94.261V94.262ZM58.329 91.34C58.181 91.39 57.785 91.142 57.933 91.093L58.923 90.796C59.468 90.647 59.418 90.944 59.171 91.043L58.329 91.34ZM59.617 95.054C59.27 95.202 59.072 95.104 58.924 94.906V94.856C61.845 93.569 62.192 93.371 62.588 93.668L59.617 95.055V95.054ZM61.498 91.488C61.25 91.291 61.003 91.141 60.755 91.043C60.953 90.895 62.686 90.3 62.686 90.548C62.686 90.845 61.844 91.241 61.498 91.488Z" fill="white"/>
<path d="M87.9431 94.311C86.9031 95.004 86.1101 95.203 85.6151 95.153C85.0211 95.153 84.8721 95.054 84.7741 94.906C83.8821 95.798 85.3181 96.54 88.6861 95.203C88.9341 95.153 89.3301 95.302 89.1311 95.401C88.1911 95.846 86.1101 96.936 85.4181 96.936C84.2791 96.936 83.4381 97.233 82.3971 97.58C79.2771 98.669 74.3261 100.551 70.7611 101.986C70.1171 102.234 69.0771 103.224 68.4831 103.274C67.8891 103.373 66.6511 103.472 66.0071 103.472C65.6111 103.472 65.3141 103.224 65.1651 102.927H64.0261C63.2831 102.184 62.4421 100.649 61.7981 100.649H61.2041C62.0461 91.935 70.9581 78.566 75.4641 72.773V71.98C78.2371 71.98 79.6731 74.209 79.6731 76.585C79.6731 77.179 77.1481 82.823 76.2561 84.458C75.6621 85.497 74.0771 86.982 73.2351 88.171C72.7891 88.815 72.4921 90.103 72.0961 90.796C71.5511 91.786 69.8671 92.628 70.4621 94.064C73.8291 93.024 74.4731 92.925 74.8691 92.826C75.4141 92.678 76.0571 92.529 76.7011 92.529C77.4931 92.529 78.2361 92.777 78.6321 93.469C78.8801 93.222 80.8601 92.43 81.1081 92.43C81.8011 92.43 81.8511 92.677 82.5441 92.677C83.1881 92.677 85.7631 91.835 87.4461 91.34C87.4961 91.44 87.6941 91.538 88.0401 91.588V91.637C86.5051 92.133 84.4751 92.628 83.1871 93.42L83.6831 93.717C85.2181 93.172 88.3371 91.786 90.0701 91.39C90.6641 91.588 91.3581 92.034 91.4071 92.133C92.1501 91.835 93.4371 91.142 93.4871 91.488C93.6351 92.181 90.4661 93.667 87.9421 94.31L87.9431 94.311ZM69.9191 90.944C69.5721 91.835 68.9781 92.676 69.6221 92.973L70.5131 91.092L69.9191 90.944ZM82.8921 96.143C80.2681 96.638 74.7711 98.668 71.3551 100.352L71.4051 100.55L83.6851 96.489L82.8931 96.142L82.8921 96.143ZM72.7911 87.131C72.2961 87.131 72.0981 87.726 72.0981 88.023H72.7911V87.131ZM79.1291 94.262L80.2181 93.667C79.9701 93.519 79.4261 93.469 78.8321 93.865L79.1291 94.261V94.262ZM88.6351 91.34C88.4871 91.39 88.0911 91.142 88.2391 91.093L89.2291 90.796C89.7741 90.647 89.7241 90.944 89.4771 91.043L88.6351 91.34ZM89.9231 95.054C89.5761 95.202 89.3781 95.104 89.2301 94.906V94.856C92.1511 93.569 92.4981 93.371 92.8941 93.668L89.9231 95.055V95.054ZM91.8041 91.488C91.5561 91.291 91.3091 91.141 91.0611 91.043C91.2591 90.895 92.9921 90.3 92.9921 90.548C92.9921 90.845 92.1501 91.241 91.8041 91.488Z" fill="white"/>
<path d="M94.3319 106.541L91.6079 103.422L92.1029 102.778C90.9149 100.054 92.8949 96.4399 94.8269 96.4399C96.4109 96.4399 98.0949 98.9649 98.8379 101.688C98.5899 102.827 96.1139 105.947 94.3319 106.541Z" fill="white"/>
</svg>
